<svg width="30" height="30" viewBox="0 0 30 30" fill="none" xmlns="http://www.w3.org/2000/svg">
<g id="icon/briefcase">
<path id="Vector" d="M25 8.75H5C3.61929 8.75 2.5 9.86929 2.5 11.25V23.75C2.5 25.1307 3.61929 26.25 5 26.25H25C26.3807 26.25 27.5 25.1307 27.5 23.75V11.25C27.5 9.86929 26.3807 8.75 25 8.75Z" stroke="white" stroke-width="2" stroke-linecap="round" stroke-linejoin="round"/>
<path id="Vector_2" d="M20 26.25V6.25C20 5.58696 19.7366 4.95107 19.2678 4.48223C18.7989 4.01339 18.163 3.75 17.5 3.75H12.5C11.837 3.75 11.2011 4.01339 10.7322 4.48223C10.2634 4.95107 10 5.58696 10 6.25V26.25" stroke="white" stroke-width="2" stroke-linecap="round" stroke-linejoin="round"/>
</g>
</svg>
