<svg width="30" height="30" viewBox="0 0 30 30" fill="none" xmlns="http://www.w3.org/2000/svg">
<g id="icon/settings">
<path id="Vector" d="M15.275 2.5H14.725C14.062 2.5 13.4261 2.76339 12.9572 3.23223C12.4884 3.70107 12.225 4.33696 12.225 5V5.225C12.2246 5.66341 12.1088 6.09399 11.8894 6.47355C11.67 6.85311 11.3547 7.1683 10.975 7.3875L10.4375 7.7C10.0575 7.91942 9.62634 8.03494 9.1875 8.03494C8.74866 8.03494 8.31755 7.91942 7.9375 7.7L7.75 7.6C7.17633 7.26908 6.4948 7.1793 5.855 7.35039C5.21521 7.52147 4.66944 7.93942 4.3375 8.5125L4.0625 8.9875C3.73158 9.56117 3.64181 10.2427 3.81289 10.8825C3.98397 11.5223 4.40192 12.0681 4.975 12.4L5.1625 12.525C5.54035 12.7431 5.85453 13.0564 6.07382 13.4335C6.29311 13.8107 6.40987 14.2387 6.4125 14.675V15.3125C6.41425 15.753 6.29957 16.1862 6.08006 16.5681C5.86055 16.9501 5.54401 17.2672 5.1625 17.4875L4.975 17.6C4.40192 17.9319 3.98397 18.4777 3.81289 19.1175C3.64181 19.7573 3.73158 20.4388 4.0625 21.0125L4.3375 21.4875C4.66944 22.0606 5.21521 22.4785 5.855 22.6496C6.4948 22.8207 7.17633 22.7309 7.75 22.4L7.9375 22.3C8.31755 22.0806 8.74866 21.9651 9.1875 21.9651C9.62634 21.9651 10.0575 22.0806 10.4375 22.3L10.975 22.6125C11.3547 22.8317 11.67 23.1469 11.8894 23.5265C12.1088 23.906 12.2246 24.3366 12.225 24.775V25C12.225 25.663 12.4884 26.2989 12.9572 26.7678C13.4261 27.2366 14.062 27.5 14.725 27.5H15.275C15.938 27.5 16.5739 27.2366 17.0428 26.7678C17.5116 26.2989 17.775 25.663 17.775 25V24.775C17.7755 24.3366 17.8912 23.906 18.1106 23.5265C18.33 23.1469 18.6453 22.8317 19.025 22.6125L19.5625 22.3C19.9425 22.0806 20.3737 21.9651 20.8125 21.9651C21.2513 21.9651 21.6825 22.0806 22.0625 22.3L22.25 22.4C22.8237 22.7309 23.5052 22.8207 24.145 22.6496C24.7848 22.4785 25.3306 22.0606 25.6625 21.4875L25.9375 21C26.2684 20.4263 26.3582 19.7448 26.1871 19.105C26.016 18.4652 25.5981 17.9194 25.025 17.5875L24.8375 17.4875C24.456 17.2672 24.1395 16.9501 23.9199 16.5681C23.7004 16.1862 23.5858 15.753 23.5875 15.3125V14.6875C23.5858 14.247 23.7004 13.8138 23.9199 13.4319C24.1395 13.0499 24.456 12.7328 24.8375 12.5125L25.025 12.4C25.5981 12.0681 26.016 11.5223 26.1871 10.8825C26.3582 10.2427 26.2684 9.56117 25.9375 8.9875L25.6625 8.5125C25.3306 7.93942 24.7848 7.52147 24.145 7.35039C23.5052 7.1793 22.8237 7.26908 22.25 7.6L22.0625 7.7C21.6825 7.91942 21.2513 8.03494 20.8125 8.03494C20.3737 8.03494 19.9425 7.91942 19.5625 7.7L19.025 7.3875C18.6453 7.1683 18.33 6.85311 18.1106 6.47355C17.8912 6.09399 17.7755 5.66341 17.775 5.225V5C17.775 4.33696 17.5116 3.70107 17.0428 3.23223C16.5739 2.76339 15.938 2.5 15.275 2.5Z" stroke="white" stroke-width="2" stroke-linecap="round" stroke-linejoin="round"/>
<path id="Vector_2" d="M15 18.75C17.0711 18.75 18.75 17.0711 18.75 15C18.75 12.9289 17.0711 11.25 15 11.25C12.9289 11.25 11.25 12.9289 11.25 15C11.25 17.0711 12.9289 18.75 15 18.75Z" stroke="white" stroke-width="2" stroke-linecap="round" stroke-linejoin="round"/>
</g>
</svg>
