<svg width="40" height="40" viewBox="0 0 40 40" fill="none" xmlns="http://www.w3.org/2000/svg">
<g id="icon/puzzle">
<path id="Vector" d="M32.3983 13.0834C32.3166 13.6201 32.4966 14.1634 32.88 14.5467L35.4933 17.1601C36.2766 17.9434 36.67 18.9717 36.67 20.0001C36.67 21.0284 36.2783 22.0551 35.4933 22.8401L32.8083 25.5251C32.6278 25.7054 32.4077 25.8409 32.1654 25.9207C31.9232 26.0006 31.6656 26.0227 31.4133 25.9851C30.63 25.8684 30.0766 25.1851 29.8 24.4434C29.5572 23.7881 29.1536 23.2043 28.6262 22.7457C28.0988 22.2871 27.4645 21.9685 26.7818 21.8192C26.0991 21.6699 25.3897 21.6946 24.7191 21.8911C24.0484 22.0877 23.4379 22.4496 22.9437 22.9438C22.4495 23.438 22.0875 24.0485 21.891 24.7192C21.6945 25.3899 21.6698 26.0992 21.8191 26.7819C21.9684 27.4647 22.287 28.0989 22.7456 28.6263C23.2041 29.1537 23.7879 29.5573 24.4433 29.8001C25.1866 30.0767 25.8683 30.6284 25.985 31.4134C26.0227 31.6657 26.0007 31.9233 25.9208 32.1656C25.8409 32.4079 25.7053 32.628 25.525 32.8084L22.8416 35.4917C22.469 35.8657 22.0261 36.1623 21.5384 36.3645C21.0507 36.5667 20.5279 36.6706 20 36.6701C19.4724 36.6708 18.9499 36.5671 18.4625 36.3652C17.9751 36.1633 17.5325 35.867 17.16 35.4934L14.5466 32.8801C14.3577 32.6909 14.1271 32.5486 13.8733 32.4646C13.6194 32.3807 13.3494 32.3574 13.085 32.3967C12.2633 32.5201 11.685 33.2367 11.385 34.0101C11.1335 34.6555 10.7251 35.2281 10.1967 35.676C9.6683 36.1239 9.03657 36.4329 8.35867 36.5753C7.68077 36.7176 6.97807 36.6887 6.31416 36.4911C5.65024 36.2935 5.04606 35.9336 4.55626 35.4438C4.06645 34.954 3.70649 34.3498 3.50893 33.6859C3.31137 33.022 3.28244 32.3193 3.42477 31.6414C3.5671 30.9635 3.87619 30.3317 4.32408 29.8033C4.77197 29.2749 5.34453 28.8665 5.98996 28.6151C6.76329 28.3151 7.47996 27.7367 7.60163 26.9151C7.64115 26.6508 7.61817 26.3808 7.53452 26.127C7.45087 25.8732 7.30889 25.6425 7.11996 25.4534L4.50663 22.8401C4.13304 22.4676 3.83676 22.0249 3.63483 21.5375C3.4329 21.0501 3.32929 20.5276 3.32996 20.0001C3.32996 18.9717 3.72329 17.9434 4.50663 17.1601L7.04996 14.6167C7.44996 14.2167 8.01829 14.0284 8.57829 14.1117C9.43663 14.2401 10.04 14.9917 10.3666 15.7951C10.6261 16.4313 11.0389 16.9935 11.5683 17.4316C12.0977 17.8697 12.7272 18.17 13.4008 18.3059C14.0743 18.4418 14.771 18.409 15.4288 18.2104C16.0866 18.0119 16.6851 17.6537 17.171 17.1678C17.6569 16.6819 18.0151 16.0834 18.2136 15.4256C18.4122 14.7678 18.445 14.0711 18.3091 13.3975C18.1732 12.724 17.8729 12.0945 17.4348 11.5651C16.9967 11.0357 16.4345 10.6229 15.7983 10.3634C14.995 10.0367 14.2433 9.43341 14.115 8.57508C14.0316 8.01508 14.2183 7.44841 14.62 7.04675L17.1616 4.50508C17.5341 4.132 17.9765 3.83614 18.4636 3.6345C18.9507 3.43286 19.4728 3.32941 20 3.33008C21.0283 3.33008 22.0566 3.72341 22.84 4.50675L25.4533 7.12008C25.8366 7.50341 26.38 7.68341 26.915 7.60341C27.7366 7.48008 28.315 6.76341 28.615 5.99008C28.8664 5.34465 29.2748 4.77209 29.8032 4.3242C30.3316 3.87631 30.9633 3.56722 31.6412 3.42489C32.3192 3.28257 33.0218 3.31149 33.6858 3.50905C34.3497 3.70661 34.9539 4.06658 35.4437 4.55638C35.9335 5.04618 36.2934 5.65037 36.491 6.31428C36.6885 6.97819 36.7175 7.68089 36.5751 8.35879C36.4328 9.0367 36.1237 9.66842 35.6758 10.1968C35.2279 10.7252 34.6554 11.1336 34.01 11.3851C33.2366 11.6851 32.52 12.2617 32.3983 13.0834Z" fill="#6B538C" stroke="black" stroke-width="2" stroke-linecap="round" stroke-linejoin="round"/>
</g>
</svg>
